<?xml version="1.0" standalone="no"?>
<!DOCTYPE svg PUBLIC "-//W3C//DTD SVG 20010904//EN"
 "http://www.w3.org/TR/2001/REC-SVG-20010904/DTD/svg10.dtd">
<svg version="1.0" xmlns="http://www.w3.org/2000/svg"
 width="300.000000pt" height="300.000000pt" viewBox="0 0 300.000000 300.000000"
 preserveAspectRatio="xMidYMid meet">
<metadata>
Created by potrace 1.11, written by Peter Selinger 2001-2013
</metadata>
<g transform="translate(0.000000,300.000000) scale(0.100000,-0.100000)"
fill="#000000" stroke="none">
<path d="M1420 2774 c107 -65 190 -141 190 -173 0 -5 -33 6 -73 24 -139 64
-238 88 -372 89 -94 1 -130 -3 -167 -17 -56 -22 -62 -37 -15 -37 85 0 264 -64
293 -104 17 -25 12 -32 -28 -40 -18 -4 -74 -26 -124 -51 -133 -64 -231 -161
-259 -254 -7 -24 -7 -24 31 6 79 62 147 80 174 48 7 -9 11 -17 9 -19 -2 -2
-29 -19 -59 -38 -94 -59 -160 -148 -160 -214 l0 -26 31 26 c33 28 46 31 68 17
12 -8 8 -14 -16 -35 -54 -46 -80 -121 -74 -211 l3 -30 15 35 c18 43 42 70 61
70 10 0 12 -5 6 -17 -4 -10 -16 -52 -27 -94 -21 -82 -18 -150 8 -185 12 -18
14 -15 25 28 11 42 34 78 44 67 2 -2 18 -33 36 -68 17 -35 47 -87 65 -115 40
-60 60 -132 51 -181 -8 -42 -12 -42 -121 12 -101 51 -180 110 -261 196 -124
130 -200 290 -212 446 l-5 75 -34 -40 c-72 -82 -203 -327 -203 -378 0 -8 16
-24 35 -36 l35 -22 0 -92 0 -91 -62 -34 c-35 -19 -64 -35 -66 -36 -6 -5 31
-164 55 -238 l26 -77 76 0 76 -1 43 -74 c23 -41 42 -78 42 -82 0 -5 -16 -34
-35 -66 l-35 -58 19 -27 c24 -34 197 -202 208 -202 4 0 34 16 67 35 32 20 61
35 65 33 4 -2 41 -22 84 -46 l77 -43 -7 -74 -6 -73 94 -30 c132 -42 221 -58
232 -40 4 7 22 37 38 66 l30 53 91 -3 92 -3 32 -55 c18 -30 35 -59 36 -63 5
-12 118 10 225 44 l92 30 3 76 3 76 73 44 c41 24 76 43 79 43 3 0 32 -16 64
-36 42 -25 63 -33 75 -26 22 12 193 183 205 204 7 12 -1 33 -27 77 l-36 61 44
77 43 78 77 3 77 3 25 77 c23 69 55 200 56 227 0 6 -29 26 -65 45 l-65 35 0
92 0 92 39 22 40 22 -23 61 c-44 115 -122 254 -192 339 l-23 27 -5 -32 c-27
-184 -56 -269 -131 -382 -50 -76 -146 -172 -223 -225 -66 -44 -209 -116 -253
-126 -26 -6 -26 -6 -32 68 -8 93 -39 177 -80 220 -18 17 -70 61 -117 97 -135
104 -224 258 -237 410 -10 113 27 180 128 225 95 42 127 38 186 -22 56 -57
108 -78 218 -88 99 -9 134 -22 146 -53 11 -29 4 -76 -17 -109 -18 -28 -13 -28
68 -3 39 12 74 31 92 49 15 16 49 37 74 46 70 26 85 42 77 85 -9 49 -29 68
-110 105 -38 17 -83 43 -100 57 -16 14 -49 37 -71 51 -23 14 -68 51 -101 81
-56 52 -149 106 -182 106 -8 0 -54 40 -101 88 -97 100 -164 139 -251 148 l-54
6 45 -28z m433 -287 c18 -8 39 -22 47 -32 14 -17 13 -18 -28 -12 -41 5 -82 30
-82 49 0 12 26 10 63 -5z m-308 -96 l40 -9 -51 -1 c-94 -2 -153 -27 -215 -90
-66 -67 -88 -121 -96 -233 -12 -161 26 -265 132 -362 86 -77 152 -165 194
-257 49 -107 49 -107 -5 -99 -47 7 -107 0 -158 -20 -16 -6 -30 -9 -31 -8 -1 2
-8 26 -14 53 -19 77 -67 169 -124 237 -66 80 -97 164 -104 283 -9 152 39 312
120 402 76 84 203 126 312 104z m-942 -964 c57 -79 183 -201 266 -256 78 -53
182 -102 279 -131 57 -17 72 -26 72 -41 0 -56 88 -170 155 -201 24 -11 25 -14
25 -120 0 -124 7 -118 -107 -93 -436 92 -762 472 -789 920 l-6 90 30 -53 c17
-28 50 -80 75 -115z m1887 -1 c-25 -174 -105 -356 -218 -496 -152 -191 -387
-325 -624 -356 l-48 -7 0 110 0 111 29 12 c65 26 130 113 156 206 2 7 41 24
87 39 247 81 460 252 580 466 l43 76 3 -41 c2 -22 -2 -77 -8 -120z m-911 -271
c71 -61 59 -170 -24 -209 -41 -20 -68 -20 -109 -1 -58 28 -87 117 -56 175 32
60 136 79 189 35z"/>
</g>
</svg>
